<svg xmlns="http://www.w3.org/2000/svg" version="1.0" viewBox="0 0 375 375"><defs><clipPath id="a"><path d="M9.078 94.895h347.61v173.988H9.077Zm0 0"/></clipPath><clipPath id="b"><path d="M18.21 104.348h347.61v173.988H18.21Zm0 0"/></clipPath><clipPath id="c"><path d="M27.39 113.527H375v173.989H27.39Zm0 0"/></clipPath><clipPath id="d"><path d="M0 85.54h347.61v173.987H0Zm0 0"/></clipPath><clipPath id="e"><path d="M0 85.54h347.25v174H0Zm0 0"/></clipPath></defs><g clip-path="url(#a)"><path fill="#111827" d="M9.078 94.895h347.3v173.988H9.079Zm0 0"/></g><g clip-path="url(#b)"><path fill="#111827" d="M18.21 104.348h347.302v173.988H18.21Zm0 0"/></g><g clip-path="url(#c)"><path fill="#111827" d="M27.39 113.527h347.301v173.989h-347.3Zm0 0"/></g><g clip-path="url(#d)"><path fill="#fff" d="M0 85.54h347.3v173.987H0Zm0 0"/></g><g clip-path="url(#e)"><path fill="none" stroke="#000" stroke-width="8" d="M0 0h463.469v231.984H0V0" transform="matrix(.74924 0 0 .75005 0 85.54)"/></g><path fill="#111827" d="M118.72 156.295H96.347v59.078h-18.89v-59.078H55.298v-15.281h63.422ZM292.461 156.295h-22.375v59.078h-18.89v-59.078h-22.157v-15.281h63.422Zm0 0"/></svg>